<svg xmlns="http://www.w3.org/2000/svg" viewBox="0 0 500 300">
  <rect width="500" height="300" rx="24" fill="#f3f4f6"/>
  <path d="M115 115h270v125H115z" fill="#fff" stroke="#d1d5db" stroke-width="5"/>
  <path d="M95 115h310l-25-65H120l-25 65Z" fill="#e5e7eb" stroke="#9ca3af" stroke-width="5"/>
  <path d="M105 115c0 20 16 35 35 35s35-15 35-35c0 20 16 35 35 35s35-15 35-35c0 20 16 35 35 35s35-15 35-35c0 20 16 35 35 35s35-15 35-35" fill="none" stroke="#6b7280" stroke-width="8"/>
  <rect x="145" y="170" width="70" height="70" fill="#dbeafe"/>
  <rect x="255" y="170" width="90" height="50" fill="#fef3c7"/>
  <circle cx="375" cy="75" r="28" fill="#f59e0b"/>
  <path d="M365 75h20M375 65v20" stroke="#fff" stroke-width="6" stroke-linecap="round"/>
</svg>
